PathFileType	3	(X/Y/Z)	squats_2__view1_aligned.trc
DataRate	CameraRate	NumFrames	NumMarkers	Units	OrigDataRate	OrigDataStartFrame	OrigNumFrames
100.0	100.0	12	19	mm	100.0	338	1550
Frame#	Time	pelvis			neck			head			hip_left			hip_right			knee_left			knee_right			ankle_left			ankle_right			heel_left			heel_right			toe_left			toe_right			shoulder_left			shoulder_right			elbow_left			elbow_right			wrist_left			wrist_right			
		X1	Y1	Z1	X2	Y2	Z2	X3	Y3	Z3	X4	Y4	Z4	X5	Y5	Z5	X6	Y6	Z6	X7	Y7	Z7	X8	Y8	Z8	X9	Y9	Z9	X10	Y10	Z10	X11	Y11	Z11	X12	Y12	Z12	X13	Y13	Z13	X14	Y14	Z14	X15	Y15	Z15	X16	Y16	Z16	X17	Y17	Z17	X18	Y18	Z18	X19	Y19	Z19	
338	3.37000	154.747060	527.415137	46.909701	154.929443	933.001014	-281.145954	166.669224	1002.630283	-436.105960	72.606149	528.054730	44.988755	236.887909	526.775547	48.830719	-21.687643	429.835093	-359.634187	341.735914	389.753806	-342.494808	37.434969	181.501684	-60.318160	263.806773	145.532629	-46.522740	49.506731	151.586756	-10.923147	254.051868	121.007666	7.546136	-25.420985	106.528296	-209.404714	256.764865	44.876897	-196.787975	-23.616741	918.900821	-238.409792	328.842625	890.078251	-226.428163	-187.953827	690.167955	-202.984864	408.979416	617.548753	-231.371581	-209.651399	555.411984	-417.343332	420.021427	495.520156	-454.012675
339	3.38000	153.080425	523.520939	47.515131	153.979214	929.125224	-279.834358	165.712569	998.780051	-434.729514	70.755314	524.144422	45.414689	235.405510	522.897458	49.615615	-22.365617	428.617428	-360.187774	341.398416	387.834650	-342.023102	37.362408	181.462721	-60.198939	262.378089	145.378154	-44.912994	49.447130	151.657009	-10.723085	252.510910	121.067444	9.252049	-24.991812	106.203304	-209.244037	255.021880	44.453154	-194.836809	-24.578985	915.208335	-237.350818	327.749574	886.005588	-225.024013	-188.618197	686.239610	-203.130620	407.142949	613.239038	-230.153822	-211.228707	552.156314	-417.543388	418.296317	492.242139	-453.151523
340	3.39000	151.413790	519.626741	48.120561	153.028985	925.249434	-278.522761	164.755915	994.929819	-433.353068	68.904479	520.234114	45.840623	233.923111	519.019369	50.400510	-23.043591	427.399762	-360.741361	341.060918	385.915494	-341.551396	37.289848	181.423758	-60.079719	260.949405	145.223679	-43.303247	49.387529	151.727261	-10.523023	250.969951	121.127221	10.957962	-24.562639	105.878311	-209.083359	253.278895	44.029411	-192.885644	-25.541229	911.515849	-236.291844	326.656522	881.932926	-223.619862	-189.282567	682.311265	-203.276375	405.306482	608.929323	-228.936063	-212.806015	548.900644	-417.743445	416.571206	488.964122	-452.290370
341	3.40000	149.747154	515.732544	48.725991	152.078756	921.373645	-277.211165	163.799260	991.079587	-431.976623	67.053644	516.323806	46.266557	232.440712	515.141280	51.185406	-23.721565	426.182097	-361.294949	340.723420	383.996338	-341.079689	37.217287	181.384794	-59.960498	259.520722	145.069204	-41.693501	49.327928	151.797514	-10.322960	249.428993	121.186998	12.663874	-24.133466	105.553318	-208.922681	251.535909	43.605668	-190.934478	-26.503473	907.823362	-235.232870	325.563471	877.860263	-222.215712	-189.946937	678.382921	-203.422131	403.470015	604.619608	-227.718304	-214.383323	545.644974	-417.943501	414.846096	485.686105	-451.429218
342	3.41000	148.080519	511.838346	49.331422	151.128526	917.497855	-275.899569	162.842605	987.229355	-430.600177	65.202808	512.413498	46.692491	230.958313	511.263191	51.970301	-24.399539	424.964432	-361.848536	340.385922	382.077182	-340.607983	37.144726	181.345831	-59.841278	258.092038	144.914730	-40.083754	49.268328	151.867766	-10.122898	247.888034	121.246776	14.369787	-23.704293	105.228325	-208.762004	249.792924	43.181924	-188.983313	-27.465717	904.130876	-234.173896	324.470420	873.787600	-220.811561	-190.611307	674.454576	-203.567887	401.633548	600.309893	-226.500545	-215.960630	542.389303	-418.143557	413.120985	482.408088	-450.568065
343	3.42000	146.413884	507.944148	49.936852	150.178297	913.622065	-274.587972	161.885950	983.379124	-429.223732	63.351973	508.503190	47.118424	229.475915	507.385102	52.755197	-25.077514	423.746767	-362.402124	340.048425	380.158026	-340.136277	37.072166	181.306867	-59.722058	256.663354	144.760255	-38.474007	49.208727	151.938019	-9.922836	246.347075	121.306553	16.075700	-23.275120	104.903333	-208.601326	248.049939	42.758181	-187.032147	-28.427960	900.438390	-233.114922	323.377368	869.714938	-219.407410	-191.275677	670.526231	-203.713642	399.797081	596.000178	-225.282785	-217.537938	539.133633	-418.343614	411.395875	479.130071	-449.706913
344	3.43000	144.747249	504.049951	50.542282	149.228068	909.746275	-273.276376	160.929295	979.528892	-427.847286	61.501138	504.592882	47.544358	227.993516	503.507014	53.540092	-25.755488	422.529102	-362.955711	339.710927	378.238870	-339.664571	36.999605	181.267904	-59.602837	255.234670	144.605780	-36.864261	49.149126	152.008271	-9.722773	244.806117	121.366330	17.781612	-22.845947	104.578340	-208.440649	246.306953	42.334438	-185.080982	-29.390204	896.745904	-232.055949	322.284317	865.642275	-218.003260	-191.940047	666.597887	-203.859398	397.960614	591.690463	-224.065026	-219.115246	535.877963	-418.543670	409.670764	475.852054	-448.845760
345	3.44000	143.080613	500.155753	51.147713	148.277839	905.870485	-271.964780	159.972640	975.678660	-426.470841	59.650303	500.682575	47.970292	226.511117	499.628925	54.324988	-26.433462	421.311437	-363.509299	339.373429	376.319714	-339.192864	36.927045	181.228940	-59.483617	253.805986	144.451306	-35.254514	49.089525	152.078524	-9.522711	243.265158	121.426108	19.487525	-22.416773	104.253347	-208.279971	244.563968	41.910695	-183.129816	-30.352448	893.053417	-230.996975	321.191266	861.569612	-216.599109	-192.604417	662.669542	-204.005154	396.124146	587.380749	-222.847267	-220.692554	532.622293	-418.743726	407.945654	472.574038	-447.984608
346	3.45000	140.282678	496.661283	53.335182	145.566511	903.013507	-268.844670	157.271346	973.040208	-423.188884	56.683115	497.215057	50.142646	223.882432	496.107501	56.527571	-29.406322	420.113758	-361.546052	337.404659	373.997492	-336.987242	34.839597	180.954755	-57.257000	250.975573	144.109611	-32.028859	47.091033	151.886594	-7.264124	240.367153	121.326759	22.799670	-24.350650	103.738120	-205.940549	241.289583	41.326447	-179.546467	-33.147511	890.205513	-227.839276	318.585386	858.281612	-213.719835	-195.275969	659.697371	-202.036085	392.752161	583.901487	-220.264890	-224.302721	530.227875	-416.763881	403.406741	469.526574	-445.333956
347	3.46000	137.484743	493.166812	55.522652	142.855182	900.156529	-265.724559	154.570052	970.401756	-419.906928	53.715928	493.747539	52.315000	221.253746	492.586078	58.730154	-32.379182	418.916079	-359.582805	335.435890	371.675269	-334.781620	32.752150	180.680570	-55.030384	248.145160	143.767915	-28.803203	45.092540	151.694665	-5.005536	237.469148	121.227411	26.111816	-26.284526	103.222893	-203.601126	238.015198	40.742199	-175.963117	-35.942574	887.357609	-224.681577	315.979506	854.993612	-210.840561	-197.947520	656.725199	-200.067016	389.380175	580.422226	-217.682512	-227.912888	527.833457	-414.784035	398.867827	466.479110	-442.683304
348	3.47000	134.686807	489.672342	57.710122	140.143854	897.299551	-262.604449	151.868757	967.763304	-416.624971	50.748740	490.280022	54.487355	218.625061	489.064654	60.932737	-35.352042	417.718401	-357.619558	333.467120	369.353047	-332.575998	30.664703	180.406385	-52.803768	245.314747	143.426220	-25.577548	43.094047	151.502735	-2.746948	234.571143	121.128063	29.423961	-28.218402	102.707665	-201.261704	234.740812	40.157952	-172.379768	-38.737637	884.509705	-221.523878	313.373627	851.705611	-207.961287	-200.619072	653.753028	-198.097947	386.008189	576.942964	-215.100135	-231.523055	525.439040	-412.804189	394.328914	463.431646	-440.032652
349	3.48000	131.888872	486.177871	59.897591	137.432526	894.442573	-259.484339	149.167463	965.124852	-413.343015	47.781552	486.812504	56.659709	215.996376	485.543231	63.135320	-38.324901	416.520722	-355.656311	331.498351	367.030824	-330.370377	28.577256	180.132200	-50.577151	242.484334	143.084525	-22.351892	41.095555	151.310806	-0.488361	231.673138	121.028714	32.736106	-30.152278	102.192438	-198.922281	231.466427	39.573704	-168.796419	-41.532700	881.661801	-218.366179	310.767747	848.417611	-205.082014	-203.290623	650.780856	-196.128878	382.636203	573.463703	-212.517757	-235.133223	523.044622	-410.824344	389.790001	460.384182	-437.382000
